<svg width="24" height="20" viewBox="0 0 24 20" fill="none" xmlns="http://www.w3.org/2000/svg">
<path d="M21.9199 9.66659C19.8999 5.75825 16.0999 3.33325 11.9999 3.33325C7.89994 3.33325 4.09994 5.75825 2.07994 9.66659C2.02488 9.77172 1.99646 9.8852 1.99646 9.99992C1.99646 10.1146 2.02488 10.2281 2.07994 10.3333C4.09994 14.2416 7.89994 16.6666 11.9999 16.6666C16.0999 16.6666 19.8999 14.2416 21.9199 10.3333C21.975 10.2281 22.0034 10.1146 22.0034 9.99992C22.0034 9.8852 21.975 9.77172 21.9199 9.66659ZM11.9999 14.9999C8.82994 14.9999 5.82994 13.0916 4.09994 9.99992C5.82994 6.90825 8.82994 4.99992 11.9999 4.99992C15.1699 4.99992 18.1699 6.90825 19.8999 9.99992C18.1699 13.0916 15.1699 14.9999 11.9999 14.9999ZM11.9999 6.66659C11.2088 6.66659 10.4355 6.86208 9.77766 7.22835C9.11987 7.59462 8.60718 8.11522 8.30443 8.72431C8.00168 9.33339 7.92246 10.0036 8.0768 10.6502C8.23114 11.2968 8.61211 11.8908 9.17152 12.3569C9.73093 12.8231 10.4437 13.1406 11.2196 13.2692C11.9955 13.3978 12.7998 13.3318 13.5307 13.0795C14.2616 12.8272 14.8863 12.4 15.3258 11.8518C15.7653 11.3037 15.9999 10.6592 15.9999 9.99992C15.9999 9.11586 15.5785 8.26802 14.8284 7.6429C14.0782 7.01777 13.0608 6.66659 11.9999 6.66659ZM11.9999 11.6666C11.6044 11.6666 11.2177 11.5688 10.8888 11.3857C10.5599 11.2026 10.3036 10.9423 10.1522 10.6377C10.0008 10.3332 9.9612 9.99807 10.0384 9.67477C10.1155 9.35147 10.306 9.05449 10.5857 8.82141C10.8654 8.58832 11.2218 8.42958 11.6098 8.36528C11.9977 8.30097 12.3999 8.33397 12.7653 8.46012C13.1308 8.58627 13.4431 8.79989 13.6629 9.07397C13.8826 9.34805 13.9999 9.67028 13.9999 9.99992C13.9999 10.4419 13.7892 10.8659 13.4142 11.1784C13.0391 11.491 12.5304 11.6666 11.9999 11.6666Z" fill="#6880FF"/>
</svg>
