<svg width="17" height="14" viewBox="0 0 17 14" fill="none" xmlns="http://www.w3.org/2000/svg">
<path d="M11.7721 4.45978C12.2675 3.93961 12.7593 2.72588 10.695 4.1997C8.76671 5.59311 6.8253 6.96647 4.87111 8.31959C4.57353 8.46087 4.25182 8.53754 3.92531 8.54499C3.5988 8.55244 3.27422 8.49052 2.97108 8.36294C1.73252 7.97281 0.286628 7.45264 0.286628 7.45264C0.286628 7.45264 -0.700633 6.80149 0.989378 6.10793C0.989378 6.10793 8.13445 3.02931 10.6125 1.94468C11.562 1.51121 14.7832 0.124089 14.7832 0.124089C14.7832 0.124089 16.2704 -0.483718 16.1465 0.991039C16.1052 1.5979 15.7749 3.72382 15.4447 6.02123C14.9483 9.27324 14.4116 12.8296 14.4116 12.8296C14.4116 12.8296 14.3291 13.8266 13.6272 14C12.8759 13.9866 12.15 13.7123 11.5629 13.2197C11.3978 13.0897 8.46563 11.1381 7.39131 10.1845C7.28203 10.1067 7.19325 10.0013 7.13322 9.87783C7.0732 9.7544 7.04388 9.61703 7.048 9.47851C7.05212 9.33999 7.08954 9.20481 7.15679 9.08555C7.22403 8.9663 7.31891 8.86683 7.4326 8.79641C8.90609 7.38095 10.3529 5.93513 11.7721 4.45978Z" fill="white"/>
</svg>
