<svg width="20" height="20" viewBox="0 0 20 20" fill="none" xmlns="http://www.w3.org/2000/svg">
<path d="M16.1012 4.63516C15.9746 4.56975 15.8514 4.49804 15.732 4.42031C15.3849 4.1908 15.0666 3.92037 14.784 3.61484C14.077 2.80586 13.8129 1.98516 13.7156 1.41055H13.7196C13.6383 0.933594 13.6719 0.625 13.677 0.625H10.4567V13.0773C10.4567 13.2445 10.4567 13.4098 10.4496 13.573C10.4496 13.5934 10.4477 13.6121 10.4465 13.634C10.4465 13.643 10.4465 13.6523 10.4446 13.6617C10.4446 13.6641 10.4446 13.6664 10.4446 13.6687C10.4106 14.1155 10.2674 14.5471 10.0275 14.9256C9.78758 15.304 9.45836 15.6177 9.06877 15.8391C8.66273 16.0701 8.20349 16.1912 7.73635 16.1906C6.23596 16.1906 5.01994 14.9672 5.01994 13.4562C5.01994 11.9453 6.23596 10.7219 7.73635 10.7219C8.02036 10.7216 8.30263 10.7663 8.57268 10.8543L8.57658 7.57539C7.7568 7.4695 6.92397 7.53465 6.13063 7.76673C5.33729 7.99882 4.60066 8.3928 3.96721 8.92383C3.41215 9.40609 2.94552 9.98152 2.5883 10.6242C2.45236 10.8586 1.93947 11.8004 1.87736 13.3289C1.8383 14.1965 2.09885 15.0953 2.22307 15.4668V15.4746C2.30119 15.6934 2.60393 16.4398 3.09728 17.0691C3.49511 17.5739 3.96513 18.0174 4.49221 18.3852V18.3773L4.50002 18.3852C6.059 19.4445 7.78752 19.375 7.78752 19.375C8.08674 19.3629 9.08908 19.375 10.2274 18.8355C11.4899 18.2375 12.2086 17.3465 12.2086 17.3465C12.6678 16.8141 13.0329 16.2074 13.2883 15.5523C13.5797 14.7863 13.677 13.8676 13.677 13.5004V6.89414C13.716 6.91758 14.2363 7.26172 14.2363 7.26172C14.2363 7.26172 14.986 7.74219 16.1555 8.05508C16.9945 8.27773 18.125 8.32461 18.125 8.32461V5.12773C17.7289 5.1707 16.9246 5.0457 16.1012 4.63516Z" fill="white"/>
</svg>
