<svg width="16" height="17" viewBox="0 0 16 17" fill="none" xmlns="http://www.w3.org/2000/svg">
<path fill-rule="evenodd" clip-rule="evenodd" d="M8.00005 8C10.2092 8 12.0001 6.20914 12.0001 4C12.0001 1.79086 10.2092 0 8.00005 0C5.79091 0 4.00005 1.79086 4.00005 4C4.00005 6.20914 5.79091 8 8.00005 8ZM8.00005 6.272C6.74526 6.272 5.72805 5.25479 5.72805 4C5.72805 2.74521 6.74526 1.728 8.00005 1.728C9.25484 1.728 10.272 2.74521 10.272 4C10.272 5.25479 9.25484 6.272 8.00005 6.272ZM0 17C-3.86259e-07 12.5817 3.58172 9 8 9C12.4183 9 16 12.5817 16 17H14.2667C14.2667 13.9072 11.0928 10.7333 8 10.7333C4.90721 10.7333 1.73333 13.9072 1.73333 17H0Z" fill="#6880FF"/>
</svg>
