<svg width="20" height="12" viewBox="0 0 20 12" fill="none" xmlns="http://www.w3.org/2000/svg">
<path d="M19.5474 0.824979C19.3224 1.53822 19.019 2.15906 18.6389 2.72277L18.6548 2.69756C18.2814 3.32484 17.8355 4.04957 17.3171 4.87174C16.8725 5.52086 16.6372 5.8569 16.6111 5.87986C16.4961 6.0252 16.4161 6.2033 16.3886 6.39905L16.3877 6.40493C16.4102 6.58303 16.4919 6.73845 16.6111 6.85438L16.9445 7.22907C18.7281 9.07673 19.7313 10.3503 19.9542 11.0498C19.9833 11.1271 20 11.2162 20 11.3094C20 11.4724 19.9483 11.6228 19.8608 11.7463L19.8625 11.7438C19.7158 11.8958 19.5108 11.9899 19.284 11.9899C19.259 11.9899 19.2332 11.9891 19.209 11.9866H19.2124H17.0195C17.0187 11.9866 17.017 11.9866 17.0153 11.9866C16.7345 11.9866 16.4761 11.8874 16.2735 11.7228L16.276 11.7244C15.981 11.48 15.7185 11.2153 15.4834 10.928L15.4759 10.9179C15.092 10.4805 14.7513 10.1123 14.4541 9.81322C13.4639 8.86446 12.7332 8.39009 12.262 8.39009C12.2445 8.38841 12.2245 8.38757 12.2037 8.38757C12.0662 8.38757 11.9378 8.43041 11.832 8.5035L11.8345 8.50182C11.7478 8.61103 11.6953 8.75217 11.6953 8.90423C11.6953 8.93447 11.6969 8.96303 11.7011 8.99244V8.98908C11.6786 9.25287 11.6653 9.55951 11.6653 9.8695C11.6653 9.96947 11.6669 10.0686 11.6694 10.1677V10.1535V11.1271C11.6778 11.1666 11.6828 11.212 11.6828 11.2582C11.6828 11.4615 11.5911 11.643 11.4477 11.7631L11.4469 11.7639C11.1244 11.9126 10.7476 12 10.3501 12C10.265 12 10.1817 11.9958 10.0992 11.9882L10.11 11.9891C8.79813 11.9639 7.58126 11.5766 6.54692 10.9238L6.5761 10.9406C5.31672 10.1694 4.27321 9.1655 3.47808 7.97928L3.45558 7.94399C2.70045 6.93419 1.99617 5.79333 1.39607 4.59031L1.33772 4.46094C0.986831 3.78717 0.623437 2.95883 0.310052 2.10697L0.260043 1.95155C0.132522 1.56847 0.0400067 1.12321 0.00166694 0.661999L0 0.640997C0 0.216466 0.247819 0.0042006 0.743457 0.0042006H2.93549C2.95549 0.0025204 2.97883 0.00168008 3.003 0.00168008C3.2097 0.00168008 3.40057 0.0730888 3.55143 0.193223L3.54976 0.191543C3.71645 0.375525 3.83981 0.601512 3.90065 0.853542L3.90315 0.863623C4.30655 2.01204 4.73412 2.97648 5.22587 3.90059L5.17003 3.78549C5.57176 4.60039 6.016 5.30188 6.52275 5.94959L6.50358 5.92355C6.9481 6.47354 7.29483 6.74853 7.54376 6.74853C7.55126 6.74937 7.56043 6.74937 7.57043 6.74937C7.69378 6.74937 7.8013 6.68216 7.85964 6.58135L7.86048 6.57967C7.92215 6.42005 7.95799 6.23439 7.95799 6.04116C7.95799 6 7.95633 5.95883 7.95299 5.91851V5.92355V2.6648C7.93549 2.28087 7.84214 1.92215 7.68628 1.60039L7.69295 1.61635C7.5896 1.39457 7.46541 1.20302 7.31789 1.03248L7.32039 1.03584C7.1837 0.898068 7.09035 0.717446 7.06118 0.515822L7.06034 0.510781C7.06034 0.367964 7.12535 0.239429 7.22704 0.155419L7.22787 0.154579C7.32872 0.0613274 7.46374 0.00504064 7.61127 0.00504064H7.61794H11.0735C11.0918 0.00252034 11.1127 0.00168008 11.1344 0.00168008C11.2969 0.00168008 11.4427 0.0756092 11.5394 0.191543L11.5403 0.192383C11.6261 0.350322 11.6769 0.539345 11.6769 0.739289C11.6769 0.771213 11.6753 0.802296 11.6728 0.83338V0.829179V5.17502C11.6711 5.19518 11.6703 5.21871 11.6703 5.24223C11.6703 5.39681 11.7128 5.54214 11.7861 5.66564L11.7845 5.66228C11.8453 5.75301 11.947 5.81182 12.062 5.81182C12.2087 5.80174 12.3429 5.75301 12.4554 5.67572L12.4529 5.6774C12.6796 5.5203 12.8746 5.34136 13.0438 5.1389L13.0472 5.1347C13.5531 4.55839 14.0198 3.92159 14.4266 3.24447L14.4591 3.18566C14.7458 2.7068 15.0558 2.11705 15.3367 1.51134L15.3884 1.38785L15.7601 0.638476C15.8893 0.263791 16.236 0 16.6436 0C16.6594 0 16.6753 -6.09298e-08 16.6911 0.00084004H16.6886H18.8815C19.4738 0.00084004 19.6961 0.275553 19.5483 0.824979H19.5474Z" fill="white"/>
</svg>
